<svg xmlns="http://www.w3.org/2000/svg" width="292.857" height="82" viewBox="0 0 292.857 82">
  <g id="Group_4915" data-name="Group 4915" transform="translate(-5262 -2043)">
    <path id="Path_3408" data-name="Path 3408" d="M281.446,275.39a7.533,7.533,0,0,0-4.209-5.428c-.89-.435-1.784-.869-2.709-1.22a4.684,4.684,0,0,1-2.9-3.162c-.762-2.4,1.234-6.142,3.82-7.223a3.012,3.012,0,0,0,1.684-4.528,39.32,39.32,0,0,1-1.6-3.813,47.025,47.025,0,0,0-3.478-7.828,3.919,3.919,0,0,0-2.8-2.223c-2.742-.4-5.388-.231-7.681,1.492a149.132,149.132,0,0,0-20.408,18.156,15.721,15.721,0,0,0-3.341,6.024c-2.514,8,2.265,17.892,10.121,21.04-1.386,1.158-2.669,2.247-3.975,3.306-.22.179-.364.553-.857.27-1.348-.773-2.235-.536-2.66.83-.583,1.88-.794,3.789.833,5.377a3.991,3.991,0,0,1,.918,1.672q1.939,5.816,3.889,11.63a47.341,47.341,0,0,0,1.886,5.286,1.872,1.872,0,0,0,2.689,1.036,13.4,13.4,0,0,0,3.547-2.155q5.268-4.244,10.507-8.526c1.442-1.183,3.113-2.165,3.837-4.039.074-.192.342-.321.535-.458,5.121-3.633,9.856-7.418,11.806-13.9a22.523,22.523,0,0,0,.548-11.617" transform="translate(5024.85 1808.704)" fill="#d01f3c"/>
    <path id="Path_3409" data-name="Path 3409" d="M281.677,283.541a12.271,12.271,0,0,1-2.616,6.477,129.564,129.564,0,0,1-15.394,15.019c-1.686,1.456-3.426,2.853-5.147,4.268a1.846,1.846,0,0,1-1.007.586,1.794,1.794,0,0,1-.988-.854c-2.315-3.2-4.346-6.6-6.925-9.609-.576-.672-.147-1.047.32-1.448,1.5-1.289,3.026-2.559,4.511-3.868a11.592,11.592,0,0,0,3.045-3.6c.7-1.467.394-2.053-1.188-2.407a5.89,5.89,0,0,0-1.474-.192c-3.453.131-5.63-1.755-7.378-4.426-3.623-5.529-3.521-11.405.648-16.575a86.923,86.923,0,0,1,15.45-14.494c2.814-2.131,2.909-2,4.989.849q1.7,2.333,3.225,4.786a2.471,2.471,0,0,1-.08,3c-.683.968-1.38,1.925-2.068,2.889a16.768,16.768,0,0,0-3.412,8.228c-.288,3.122,1.359,4.406,4.411,5.048,3.486.733,7.366.769,10.123,3.68a3.005,3.005,0,0,1,.957,2.639" transform="translate(5021.044 1803.167)" fill="#fff"/>
    <path id="Path_3410" data-name="Path 3410" d="M600.476,243.822c.068-2.8-.134-5.753-.3-8.709-.3-5.264-2.223-6.829-7.462-6-.147.024-.291.069-.438.093a100.362,100.362,0,0,0-39.38,15.637,5.008,5.008,0,0,0-2.025,5.769,19.2,19.2,0,0,1,.63,3.185c1.005,7.672,2,15.349,3.492,22.946,1.732,8.8,3.6,17.566,5.383,26.352a4.458,4.458,0,0,0,5.486,3.73,53.442,53.442,0,0,0,15.156-6.742,2.73,2.73,0,0,0,1.348-2.6,80.862,80.862,0,0,1,.17-8.433c.246-3.079,1.211-5.573,4.632-6.424a3.3,3.3,0,0,0,2.221-2.417,7.816,7.816,0,0,0,.172-4.24c-.54-2.351-1.123-4.682-1.464-7.083a6.441,6.441,0,0,0-3.1-4.99c-1.644-.932-1.672-1.084-.24-2.325.223-.194.463-.373.7-.553a34.868,34.868,0,0,1,12.961-5.748,2,2,0,0,0,1.728-2.117,78.966,78.966,0,0,0,.327-9.329" transform="translate(4868.966 1814.096)" fill="#d01f3c"/>
    <path id="Path_3411" data-name="Path 3411" d="M595.838,252.349a74.907,74.907,0,0,0-16.111,9.158c-2.215,1.608-3.063,3.491-2.127,6.108.5,1.387.836,2.832,1.36,4.209.7,1.839,1.362,2.138,3.337,1.738,2.184-.442,2.356-.343,2.905,1.74.165.619.291,1.246.44,1.869.54,2.252.362,2.726-1.832,3.565a5.264,5.264,0,0,0-3.658,5.476c.034,3.646.029,7.293.09,10.938a2.02,2.02,0,0,1-1.022,1.959c-3.082,1.894-6.194,3.732-9.435,5.355-1.238.62-1.941.3-2.388-.932a60.112,60.112,0,0,1-2.017-9.064c-1.242-6.273-2.61-12.524-3.737-18.816-1.268-7.082-1.74-14.268-2.543-21.41a1.091,1.091,0,0,1,.619-1.184,86.352,86.352,0,0,1,34.987-13.474c.909-.13,1.18.012,1.346.928.591,3.255.814,6.545,1.183,10.125.3.9-.409,1.316-1.4,1.712" transform="translate(4864.782 1808.823)" fill="#fff"/>
    <path id="Path_3412" data-name="Path 3412" d="M774.726,316.726c.419-2.372,2.074-2.115,3.674-1.956.94.093,1.882.183,2.812.334,1.243.2,2.484.452,2.862,2.157,1.9-3.2,4.727-3.031,7.558-2.539a2.943,2.943,0,0,1,2.464,3.225,31.266,31.266,0,0,1-1.223,7.173c-.9,3.9-1.5,7.853-2.855,11.67-1.733,4.884-6.349,4.663-9.184,2.9a3.045,3.045,0,0,1-1.173-1.84c-.26-.818-.581-1.237-1.377-.469a4.746,4.746,0,0,1-.872.566c-3.313,2-6.274.57-6.706-3.329-.464-4.2-.947-8.387-1.7-12.542q-.333-1.831-.576-3.677a3.275,3.275,0,0,1,1.88-3.538c1.527-.877,2.4.163,3.4.91a13.444,13.444,0,0,1,1.016.953" transform="translate(4760.761 1771.223)" fill="#080808"/>
    <path id="Path_3413" data-name="Path 3413" d="M771.824,320.8c.225,1.419.473,2.837.67,4.261.5,3.635,1.01,7.27,1.458,10.913a2.281,2.281,0,0,0,1.837,1.907c.974.32,1.159-.674,1.512-1.278.325-.556.577-1.154.9-1.713.565-.994,1.292-1.21,2.125-.313.708.762,1.345,1.591,2.054,2.352,1.775,1.905,5.877,1.065,6.776-1.371a39.818,39.818,0,0,0,1.55-6.35c.561-2.923,1.1-5.851,1.692-8.768.218-1.074.155-1.536-1.228-1.553a3.948,3.948,0,0,0-4.22,2.761,21.371,21.371,0,0,1-.971,2.006c-.24.472-.349,1.147-1.021,1.143-.736-.006-1.129-.605-1.37-1.21-.458-1.15-.79-2.351-1.27-3.491-.629-1.495-1.988-.947-3.122-1.007-1.023-.054-1.4.6-1.562,1.448-.248,1.266-.371,2.564-.723,3.8-.222.781.147,2.226-.979,2.185-1.07-.038-1.182-1.432-1.351-2.382a29.5,29.5,0,0,0-.99-4.347c-.31-.919-.744-.888-1.355-.238a1.765,1.765,0,0,0-.407,1.246" transform="translate(4759.058 1769.058)" fill="#fff"/>
    <path id="Path_3414" data-name="Path 3414" d="M802.515,358.2a10.346,10.346,0,0,1-4.88,1.871c2.631.56,4.233-.04,4.88-1.871" transform="translate(4746.267 1749.516)" fill="#fff"/>
    <path id="Path_3415" data-name="Path 3415" d="M527.779,332.8c1.974.462,3.433-.325,4.964-.654,2.8-.6,2.8-.6,2.809,2.187,0,1.293.008,2.587-.005,3.88a2.872,2.872,0,0,1-2.328,3.1,18.145,18.145,0,0,1-7.883,1.093,8.171,8.171,0,0,1-5.465-2.985c-3.555-4.226-3.852-9.016-2.437-14.045a34.11,34.11,0,0,1,2.316-5.775,6.4,6.4,0,0,1,5.078-3.473c3.042-.479,5.767.634,8.508,1.662a1.227,1.227,0,0,1,.536.5c1.887,3.038,3.433,6.138,2.686,9.93a2.467,2.467,0,0,1-2.143,2.249,28.208,28.208,0,0,0-6.635,2.331" transform="translate(4885.918 1770.3)" fill="#080808"/>
    <path id="Path_3416" data-name="Path 3416" d="M521.491,334.782c-.108,2.218.175,3.428.914,4.05,2.971,2.5,8.54,2.585,11.609.218.59-.455.407-.974.308-1.473-.151-.752-.682-.311-1.064-.244a23.366,23.366,0,0,1-4.885.471,2.931,2.931,0,0,1-2.577-2.018c-.549-1.286.158-2.157,1.357-2.7q2.639-1.209,5.253-2.474c3.04-1.477,3.088-1.594,2.391-5-.679-3.321-5.612-5.356-8.627-3.788-4.119,2.141-5.077,5.946-5.76,9.98a1.908,1.908,0,0,0,.038.709c1.93.125.759,1.578,1.045,2.273" transform="translate(4884.063 1767.855)" fill="#fff"/>
    <path id="Path_3417" data-name="Path 3417" d="M338.069,332.732c1.956.423,3.725-.319,5.556-.7,2.14-.448,2.236-.33,2.274,1.852a25.7,25.7,0,0,1-.152,5.5,1.746,1.746,0,0,1-.916,1.448c-3.264,1.286-6.582,2.228-10.151,1.41a7.953,7.953,0,0,1-4.342-2.687c-3.563-4.115-3.987-8.853-2.625-13.847a35.063,35.063,0,0,1,2.443-6.191,6.4,6.4,0,0,1,5.268-3.412c2.943-.41,5.556.71,8.212,1.656a.985.985,0,0,1,.462.364c2.171,3.317,3.793,6.761,2.62,10.9a1.615,1.615,0,0,1-1.312,1.236,49.237,49.237,0,0,0-7.338,2.475" transform="translate(4980.188 1770.299)" fill="#080808"/>
    <path id="Path_3418" data-name="Path 3418" d="M331.857,334.619c-.113,2.229.2,3.529.971,4.184,2.929,2.488,8.548,2.558,11.609.193.61-.471.356-.96.261-1.467-.152-.809-.682-.3-1.038-.239a21.745,21.745,0,0,1-4.883.459,2.933,2.933,0,0,1-2.613-2.153c-.521-1.371.336-2.032,1.391-2.542,1.74-.841,3.5-1.639,5.239-2.484,2.981-1.449,2.976-1.459,2.449-4.813-.522-3.329-5.46-5.608-8.491-4.091-4.133,2.067-5.241,5.811-5.883,9.885-.043.277,0,.816.086.831,1.612.3.741,1.523.9,2.238" transform="translate(4978.274 1767.902)" fill="#fff"/>
    <path id="Path_3419" data-name="Path 3419" d="M639.9,332.788a10.364,10.364,0,0,0,4.5-.473,9.965,9.965,0,0,1,2.635-.383c.437-.051.785.021.779.6-.024,2.282.294,4.568-.131,6.842a1.78,1.78,0,0,1-1.037,1.519c-3.084,1.2-6.217,2.085-9.581,1.458a8.091,8.091,0,0,1-4.787-2.777c-3.561-4.12-3.994-8.853-2.634-13.849a35.324,35.324,0,0,1,2.442-6.192,6.4,6.4,0,0,1,5.266-3.419c2.939-.41,5.555.691,8.207,1.65a.993.993,0,0,1,.466.36c2.175,3.315,3.8,6.757,2.634,10.895a1.619,1.619,0,0,1-1.305,1.245,49.212,49.212,0,0,0-7.457,2.524" transform="translate(4830.101 1770.294)" fill="#080808"/>
    <path id="Path_3420" data-name="Path 3420" d="M633.77,334.766c.1,1.46-.263,3.091,1.067,4.172,3.053,2.48,8.266,2.487,11.482.164.7-.507.4-1.048.275-1.583-.162-.67-.639-.216-.961-.159a20.714,20.714,0,0,1-5.03.464,2.969,2.969,0,0,1-2.5-2.1c-.554-1.333.255-2.048,1.33-2.566,1.831-.882,3.678-1.73,5.505-2.62,2.737-1.333,2.732-1.344,2.271-4.353-.6-3.948-5.613-6.075-9.134-4.071-3.806,2.166-4.647,5.8-5.294,9.618-.039.232,0,.681.068.695,1.552.305.826,1.486.917,2.341" transform="translate(4828.204 1767.822)" fill="#fff"/>
    <path id="Path_3421" data-name="Path 3421" d="M389.41,324.46c.413,1.407-.286,2.064-1.84,2.506a6.789,6.789,0,0,0-4.811,6.284,38.238,38.238,0,0,0-.066,8.032,1.727,1.727,0,0,1-1.8,2.191,42.026,42.026,0,0,0-5.347.392,1.29,1.29,0,0,1-1.227-.374,25,25,0,0,0-4.471-3.454,2.163,2.163,0,0,1-1.052-2.54c.938-3.76.517-7.607.784-11.409.157-2.228.067-4.472.092-6.708.006-.483-.058-.927.492-1.281,5.378-3.462,11.033-4.546,17.086-1.985,1.508.638,1.578,2.2,1.773,3.549.219,1.521.254,3.067.384,4.8" transform="translate(4959.451 1770.95)" fill="#080808"/>
    <path id="Path_3422" data-name="Path 3422" d="M377.289,339.225a7.86,7.86,0,0,1,1.34.013c1.182.207,1.522-.3,1.518-1.43-.007-1.688.1-3.379.231-5.063.283-3.579,1.734-6.479,5.3-7.716,1.733-.6,2.089-1.475,1.509-3.032a2.8,2.8,0,0,1-.161-.723,2.065,2.065,0,0,0-2.02-1.983c-3.206-.534-6.185.309-9.109,1.444a3.034,3.034,0,0,0-1.987,2.855c-.322,3.818-.3,7.646-.492,11.466-.2,4.018-.223,4.017,3.875,4.169" transform="translate(4957.153 1768.929)" fill="#fff"/>
    <path id="Path_3423" data-name="Path 3423" d="M397.514,334.1a6.16,6.16,0,0,0-6.687,4.668c-.717,3.146-.31,6.338-.255,9.512.01.554.376.959,1.143,1.514,0-2.2.088-4.126-.019-6.036a8.9,8.9,0,0,1,3.99-8.3c.561-.395,1.1-.816,1.829-1.354" transform="translate(4948.678 1761.481)" fill="#fff"/>
    <path id="Path_3424" data-name="Path 3424" d="M382.268,365c-.2-.666-.41-1.475-1.141-1.577-1.652-.233-3.33-.273-5.208-.406,2.613,2.631,3.476,2.882,6.349,1.983" transform="translate(4955.88 1747.01)" fill="#fff"/>
    <path id="Path_3425" data-name="Path 3425" d="M405.156,325.347a7.687,7.687,0,0,0-.811-3.684,4.657,4.657,0,0,0,.811,3.684" transform="translate(4941.796 1767.756)" fill="#fff"/>
    <path id="Path_3426" data-name="Path 3426" d="M421.979,337.009a24.218,24.218,0,0,1-6.655-.505,1.647,1.647,0,0,1-1.366-1.815,67.136,67.136,0,0,0-2-17.7c-.625-2.435,0-3.29,2.3-4.248a18.458,18.458,0,0,1,7.548-1.2c1.22.017,2.48-1.015,3.875-.927,1.854.116,3.613-.963,5.535-.27,1.893.682,2.314,1.331,1.895,3.281-.907,4.216-1.956,8.418-2.562,12.679-.4,2.809-1.05,5.542-1.637,8.3-.446,2.089-.737,2.294-2.907,2.4-1.338.064-2.682.012-4.022.012" transform="translate(4938.067 1773.393)" fill="#080808"/>
    <path id="Path_3427" data-name="Path 3427" d="M429.88,315.55a15.119,15.119,0,0,0-2.914-.03c-1.053-.04-1.488.451-1.579,1.488-.167,1.881-.431,3.752-.654,5.627-.064.547-.072,1.209-.8,1.219s-.729-.715-.851-1.213a12.024,12.024,0,0,0-1.134-3.372c-.6-1.016-1.254-2.293-2.35-2.54-1.341-.3-2.748.441-3.884,1.214-.783.532-.325,1.588-.194,2.373a63.752,63.752,0,0,1,1.235,7.033c.147,2.626.613,5.232.883,7.853.115,1.126.5,1.653,1.761,1.526,2.027-.2,4.07-.267,6.108-.319,1.06-.027,1.458-.5,1.573-1.525.718-6.467,1.733-12.891,2.806-19.335" transform="translate(4936.317 1770.76)" fill="#fff"/>
    <path id="Path_3428" data-name="Path 3428" d="M442.465,336.235q.206-.673.412-1.345a60.72,60.72,0,0,0,1.348-6.865c.709-3.857,1.505-7.7,2.25-11.55.119-.611.4-1.391-.549-1.567-1.009-.188-.868.743-1.022,1.295-1.137,4.088-1.386,8.325-2.077,12.489a22.964,22.964,0,0,0-.362,7.544" transform="translate(4922.899 1771.044)" fill="#fff"/>
    <path id="Path_3429" data-name="Path 3429" d="M678.609,350.573a11.2,11.2,0,0,1-3.961-1.012,4.169,4.169,0,0,1-2.578-4.055c-.156-8.749-.428-17.5-.89-26.238-.105-2-.066-3.61,1.607-4.868.357-.268.694-.62,1.175-.559,1.674.211,3.353.405,5.01.709.826.151,1.109.88,1.289,1.658a48.984,48.984,0,0,1,.778,7.853c.462,7.043.909,14.085,1.91,21.08.3,2.1-2.234,5.4-4.339,5.432" transform="translate(4809.136 1771.381)" fill="#080808"/>
    <path id="Path_3430" data-name="Path 3430" d="M674.87,329.116c.108,5.577.617,11.129.883,16.692a1.7,1.7,0,0,0,.8,1.472,3.981,3.981,0,0,0,4.843-.128c1.194-1.075.512-2.433.1-3.6a14.726,14.726,0,0,1-.9-3.6c-.295-3.419-.622-6.833-.711-10.269a81.84,81.84,0,0,0-.664-9.97c-.178-1.194-1.24-1.765-2.835-1.629-1.184.1-1.554.785-1.536,1.923.049,3.032.017,6.066.017,9.1" transform="translate(4807.303 1769.281)" fill="#fff"/>
    <path id="Path_3431" data-name="Path 3431" d="M682.648,381.244c1.387.078,2.558.277,3.416-1.1a7.277,7.277,0,0,0-3.416,1.1" transform="translate(4803.437 1738.518)" fill="#fff"/>
    <path id="Path_3432" data-name="Path 3432" d="M704.4,350.658a10.953,10.953,0,0,1-3.964-1.022,4.093,4.093,0,0,1-2.532-3.932c-.147-8.548-.495-17.092-.779-25.638a10.917,10.917,0,0,0-.19-1.623,3.625,3.625,0,0,1,4.209-4.385c.148.023.294.06.442.077,4.234.485,4.444.08,4.868,4.84.547,6.137.926,12.289,1.415,18.431.205,2.574.415,5.148.873,7.7.388,2.164-2.17,5.534-4.342,5.556" transform="translate(4796.353 1771.296)" fill="#080808"/>
    <path id="Path_3433" data-name="Path 3433" d="M700.828,329.418c.189,5.472.552,10.929.879,16.389a1.86,1.86,0,0,0,1.044,1.635,4.112,4.112,0,0,0,4.594-.3c1.07-.978.489-2.25.19-3.337a18.077,18.077,0,0,1-.919-3.13q-.374-4.157-.664-8.322c-.286-4.213-.155-8.452-.817-12.639-.192-1.215-1.2-1.769-2.807-1.635-1.2.1-1.529.829-1.514,1.94.04,3.132.014,6.264.014,9.4" transform="translate(4794.4 1769.286)" fill="#fff"/>
    <path id="Path_3434" data-name="Path 3434" d="M708.547,381.185c1.4.057,2.55.226,3.483-1.2a8.8,8.8,0,0,0-3.483,1.2" transform="translate(4790.416 1738.6)" fill="#fff"/>
    <path id="Path_3435" data-name="Path 3435" d="M715.2,358.63a5.691,5.691,0,0,0-.248-2.9c.123.956.142,1.919.248,2.9" transform="translate(4787.241 1750.743)" fill="#fff"/>
    <path id="Path_3436" data-name="Path 3436" d="M722.51,329.445c-.352-3.047.646-5.847,1.967-8.546.639-1.3,1.45-2.468,3.191-2.535.858-.033,1.46-.8,2.157-1.26a3.656,3.656,0,0,1,3.5-.568,26.069,26.069,0,0,0,2.9.627c3.155.747,5.568,2.491,6.627,5.61,1.823,5.37,2.612,10.712-.123,16.156a9.56,9.56,0,0,1-11.117,5.306A9.431,9.431,0,0,1,724.6,338.2c-1.154-2.81-2.435-5.557-2.093-8.755" transform="translate(4783.532 1770.154)" fill="#080808"/>
    <path id="Path_3437" data-name="Path 3437" d="M735.581,341.266c4.46-.044,7.213-2.317,8.037-6.7a13.42,13.42,0,0,0,.336-3.1c-.312-6.215-1.43-8.693-7.43-10.126a18.915,18.915,0,0,0-2.507-.355c-1.674-.168-5.625,1.879-6.3,3.336-1.525,3.29-2.457,6.565-1.126,10.285a9.59,9.59,0,0,0,8.992,6.659" transform="translate(4781.792 1768.001)" fill="#fff"/>
    <path id="Path_3438" data-name="Path 3438" d="M745.322,362.709a31.877,31.877,0,0,1-3.655,1.464,10.263,10.263,0,0,1-3.994-.076,38.943,38.943,0,0,1-3.865-1.04c3.971,2.958,9.515,2.747,11.514-.348" transform="translate(4777.897 1747.16)" fill="#fff"/>
    <path id="Path_3439" data-name="Path 3439" d="M497.726,340.148a32.991,32.991,0,0,1-.226,4.755A2.211,2.211,0,0,1,495.391,347c-1.274.133-2.516.639-3.787.72-5.6.355-9.579-3.081-10.668-9.008a20.028,20.028,0,0,1,1.127-11.261c1.241-3.065,4.083-4.7,7.047-6.051a5.505,5.505,0,0,1,5.485.328,1.758,1.758,0,0,1,.965,1.506c.194,1.866-.219,3.755.247,5.625.128.513-.355.9-.872,1.053-.424.125-.888.135-1.3.293a1.968,1.968,0,0,0-1.27,2.4c.169,1.1.847,1.238,1.833,1.15,2.463-.22,3.775,1.108,3.652,3.569-.046.943-.084,1.887-.126,2.829" transform="translate(4903.843 1767.92)" fill="#080808"/>
    <path id="Path_3440" data-name="Path 3440" d="M494.551,327c.021-1.9-.581-2.384-2.3-1.828-4.888,1.576-7.584,4.9-8.156,10.051a12.721,12.721,0,0,0,1.182,7.647,3.073,3.073,0,0,0,1.892,1.79c2.606.581,5.224,1.2,7.866.048a1.494,1.494,0,0,0,1.123-1.519,33.162,33.162,0,0,1,.071-3.721c.105-1.068-.256-1.35-1.287-1.325-1.33.033-3.949-2.078-3.844-3.22.2-2.125.089-4.455,2.313-5.814A2.043,2.043,0,0,0,494.551,327" transform="translate(4902.17 1766.009)" fill="#fff"/>
    <path id="Path_3441" data-name="Path 3441" d="M456.89,335.67c0-2.83.03-5.659-.019-8.488-.015-.856.3-1.071,1.1-1.109,1.235-.06,2.464-.269,3.7-.4a3.946,3.946,0,0,1,1.037,0c2.32.386,5.259,3.886,5.213,6.27-.1,5.162-.244,10.324-.369,15.487a2.921,2.921,0,0,1-3.409,2.92c-2-.52-4.148-.819-5.714-2.522a4.674,4.674,0,0,1-1.573-3.231q0-4.467,0-8.933h.038" transform="translate(4915.649 1765.528)" fill="#080808"/>
    <path id="Path_3442" data-name="Path 3442" d="M465.47,339.285h.043c0-2.234.011-4.468,0-6.7a2.275,2.275,0,0,0-2.147-2.521,8.9,8.9,0,0,0-2.066.065c-.852.011-1.168.354-1.279,1.229a70.921,70.921,0,0,0-.142,11.892c.158,3.813.465,4.083,4.378,4.071.9,0,1.245-.274,1.23-1.182-.037-2.283-.013-4.567-.013-6.851" transform="translate(4914.242 1763.504)" fill="#fff"/>
    <path id="Path_3443" data-name="Path 3443" d="M474.645,338.719a128,128,0,0,0-.386,13.529h.386Z" transform="translate(4907.032 1759.173)" fill="#fff"/>
    <path id="Path_3444" data-name="Path 3444" d="M465.685,368.424c1.035.227,1.987.884,3.52.6a4.691,4.691,0,0,0-3.52-.6" transform="translate(4911.268 1744.374)" fill="#fff"/>
    <path id="Path_3445" data-name="Path 3445" d="M459.7,309.4a9.179,9.179,0,0,1,.162-1.774c.374-1.161.062-2.982,1.675-3.161,2.937-.326,4.328.667,4.872,2.951.379,1.589,1.148,3.121-.129,4.78-.989,1.284-1.968,2.489-3.671,2.3-1.845-.2-2.251-1.894-2.728-3.336a6.9,6.9,0,0,1-.181-1.764" transform="translate(4914.241 1776.354)" fill="#080808"/>
    <path id="Path_3446" data-name="Path 3446" d="M463.518,310.145c.079.867.307,1.716,1.257,1.963.7.183,1.731-1.267,1.737-2.3.008-1.178-.994-1.156-1.688-1.252-1.1-.152-1.24.729-1.306,1.588" transform="translate(4912.346 1774.313)" fill="#fff"/>
    <path id="Path_3447" data-name="Path 3447" d="M530.931,326.318a8.937,8.937,0,0,1,1.585.338,2.673,2.673,0,0,1,1.974,2.212c.058,1.058-.856,1.6-1.759,1.972a15.105,15.105,0,0,0-5.383,3.338,1.105,1.105,0,0,1-1.212.374.89.89,0,0,1-.446-1.023c.359-2.1.641-4.223,2.189-5.881a4.172,4.172,0,0,1,3.052-1.33m-2.519,2.276a4.792,4.792,0,0,0-1.21,4c.859-1.386,2.108-2.2,1.21-4" transform="translate(4881.447 1765.407)" fill="#080808"/>
    <path id="Path_3448" data-name="Path 3448" d="M341.333,326.324a8.626,8.626,0,0,1,1.44.3c1.067.4,2.009,1.054,2.059,2.282.044,1.094-.879,1.586-1.769,1.955a14.708,14.708,0,0,0-5.26,3.245,1.106,1.106,0,0,1-1.317.413c-.549-.278-.461-.854-.374-1.323.356-1.941.634-3.91,2.064-5.459a4.212,4.212,0,0,1,3.156-1.414m-2.512,2.29a5.409,5.409,0,0,0-1.394,3.984c1.057-1.31,2.111-2.157,1.394-3.984" transform="translate(4975.839 1765.404)" fill="#080808"/>
    <path id="Path_3449" data-name="Path 3449" d="M638.039,333.233c.423-1.9.648-3.936,2.136-5.514a4.185,4.185,0,0,1,5.647-.476c1.388,1.12,1.374,2.532-.2,3.317-2.165,1.084-4.415,1.985-6.143,3.782a.837.837,0,0,1-1.088.183c-.452-.3-.33-.78-.357-1.291m2.591-4.6c-.7,1.241-1.383,2.245-1.239,3.611,1.587-1.106,1.974-2.139,1.239-3.611" transform="translate(4825.597 1765.385)" fill="#080808"/>
    <path id="Path_3450" data-name="Path 3450" d="M734.288,332.728A9.832,9.832,0,0,1,735.812,328c.751-1.167,3.14-1.282,4.913-.3,2.758,1.521,3.517,6.337,1.359,8.621-1.553,1.642-2.9,1.924-5.112,1.025-1.98-.807-2.568-2.476-2.685-4.613m7.436-.087c-.007-1.166-.953-2.484-1.752-2.441-1.007.055-2.415,2.1-2.311,3.489.067.882.142,1.864,1.438,1.841a2.833,2.833,0,0,0,2.626-2.889" transform="translate(4777.66 1765.033)" fill="#080808"/>
  </g>
</svg>
