<svg xmlns="http://www.w3.org/2000/svg" width="30.419" height="29.242" viewBox="0 0 30.419 29.242">
  <path id="Path_1" data-name="Path 1" d="M19.112,59.39a1.044,1.044,0,0,0,1.477,1.477l7.205-7.206a1.205,1.205,0,0,0,0-1.581l-7.205-7.205a1.044,1.044,0,0,0-1.477,1.477l5.476,5.476H4.044a1.044,1.044,0,0,0,0,2.089H24.588Zm10.13-21.14H16.816a4.178,4.178,0,0,0-4.177,4.177V46.6h2.089V42.427a2.089,2.089,0,0,1,2.089-2.089H29.242a2.089,2.089,0,0,1,2.089,2.089V63.315A2.089,2.089,0,0,1,29.242,65.4H16.816a2.088,2.088,0,0,1-2.089-2.089V59.137H12.638v4.177a4.178,4.178,0,0,0,4.177,4.177H29.242a4.178,4.178,0,0,0,4.177-4.177V42.427A4.178,4.178,0,0,0,29.242,38.25Z" transform="translate(-3 -38.25)" fill="#d01f3c"/>
</svg>
