<svg xmlns="http://www.w3.org/2000/svg" width="213.455" height="215.309" viewBox="0 0 213.455 215.309">
  <g id="Group_13" data-name="Group 13" transform="translate(-1238.039 -235.765)">
    <g id="Group_4" data-name="Group 4" transform="translate(1238.039 325.9)">
      <path id="Path_17" data-name="Path 17" d="M1273.9,544.443a18.93,18.93,0,0,1-7.648,3.994,32.621,32.621,0,0,1-9.347,1.19,34.14,34.14,0,0,1-9.263-1.445,17.279,17.279,0,0,1-7.393-4.249l3.74-3.739a12.539,12.539,0,0,0,5.523,4.589,19.525,19.525,0,0,0,14.955.255,12.907,12.907,0,0,0,5.864-4.5,23.463,23.463,0,0,0,2.8-5.268,16.084,16.084,0,0,0,1.1-5.778,17.681,17.681,0,0,0-1.7-7.988,24.922,24.922,0,0,0-4.418-6.2,49.787,49.787,0,0,0-6.034-5.269q-3.314-2.461-6.544-4.843-3.4-2.549-6.542-5.184a36.359,36.359,0,0,1-5.609-5.863,28.011,28.011,0,0,1-3.909-6.968,23.41,23.41,0,0,1-1.445-8.5,22.068,22.068,0,0,1,1.954-9.008,21.726,21.726,0,0,1,5.354-7.478,19.109,19.109,0,0,1,7.308-3.994,28.428,28.428,0,0,1,8.753-1.189,28.816,28.816,0,0,1,8.752,1.529,19.39,19.39,0,0,1,7.138,4.164l-3.739,3.738a12.73,12.73,0,0,0-5.354-4.588,16.242,16.242,0,0,0-6.882-1.53,18.631,18.631,0,0,0-6.969,1.36,11.928,11.928,0,0,0-5.439,4.249,34.345,34.345,0,0,0-3.229,5.863,14.434,14.434,0,0,0-1.189,6.543,18.341,18.341,0,0,0,1.444,6.628,20.972,20.972,0,0,0,3.229,5.184,29.2,29.2,0,0,0,4.5,4.249q2.549,1.955,5.1,3.994,3.907,3.059,7.9,6.118a58.506,58.506,0,0,1,7.308,6.629,28.406,28.406,0,0,1,5.268,8.073,23.852,23.852,0,0,1,1.784,10.282,19.556,19.556,0,0,1-2.125,8.242A24.466,24.466,0,0,1,1273.9,544.443Z" transform="translate(-1238.039 -456.998)" fill="#fff"/>
      <path id="Path_18" data-name="Path 18" d="M1359.842,588.7V577.14a19.687,19.687,0,0,1,3.059-11.3,19.459,19.459,0,0,1,7.563-6.713,23.09,23.09,0,0,1,19.715,0,19.474,19.474,0,0,1,7.563,6.713,19.68,19.68,0,0,1,3.06,11.3V588.7a19.9,19.9,0,0,1-2.8,10.876,19.006,19.006,0,0,1-7.054,6.714,22.485,22.485,0,0,1-9.262,2.634,21.32,21.32,0,0,1-9.6-1.529v-4.759a12.226,12.226,0,0,0,6.883,2.889,13.216,13.216,0,0,0,7.223-1.359,13.836,13.836,0,0,0,5.694-5.609,19.222,19.222,0,0,0,2.294-9.857V577.14q0-8.5-4.334-12.746a12.784,12.784,0,0,0-19.034,0q-4.335,4.25-4.334,12.746v64.241h-6.628Z" transform="translate(-1310.217 -516.207)" fill="#fff"/>
      <rect id="Rectangle_3" data-name="Rectangle 3" width="6.628" height="48.607" transform="translate(99.421 42.578)" fill="#fff"/>
      <path id="Path_19" data-name="Path 19" d="M1528.315,542.317v10.2q0,5.952,2.975,8.838a9.383,9.383,0,0,0,6.713,2.889,8.383,8.383,0,0,0,5.269-1.7l1.359,3.91A18.181,18.181,0,0,1,1538,567.64a18.466,18.466,0,0,1-6.034-1.019,15.325,15.325,0,0,1-5.268-3.059,14.877,14.877,0,0,1-3.655-5.014,16.818,16.818,0,0,1-1.359-7.053V487.253h6.627V517.5h12.746v3.4h-12.746v21.414Z" transform="translate(-1406.124 -474.927)" fill="#fff"/>
      <path id="Path_20" data-name="Path 20" d="M1628.139,588.7v18.695h-6.628V577.14q0-8.5-4.334-12.746a12.784,12.784,0,0,0-19.034,0q-4.334,4.25-4.335,12.746V588.7a19.223,19.223,0,0,0,2.3,9.857,13.819,13.819,0,0,0,5.694,5.609,13.21,13.21,0,0,0,7.223,1.359,12.226,12.226,0,0,0,6.883-2.889v4.759a21.328,21.328,0,0,1-9.6,1.529,22.468,22.468,0,0,1-9.263-2.634,18.984,18.984,0,0,1-7.052-6.714,19.893,19.893,0,0,1-2.8-10.876V577.14a19.684,19.684,0,0,1,3.059-11.3,19.455,19.455,0,0,1,7.563-6.713,23.092,23.092,0,0,1,19.715,0,19.466,19.466,0,0,1,7.562,6.713,19.675,19.675,0,0,1,3.06,11.3Z" transform="translate(-1444.933 -516.207)" fill="#fff"/>
      <path id="Path_21" data-name="Path 21" d="M1705.647,572.891a16.832,16.832,0,0,1,1.359-7.054,14.038,14.038,0,0,1,3.655-4.928,16.093,16.093,0,0,1,5.268-2.974,18.485,18.485,0,0,1,6.034-1.02,18.164,18.164,0,0,1,6.628,1.19l-1.36,3.909a8.339,8.339,0,0,0-5.269-1.869,9.265,9.265,0,0,0-6.713,2.974q-2.975,2.975-2.975,8.922v35.35h-6.627v-34.5Z" transform="translate(-1515.135 -516.207)" fill="#fff"/>
    </g>
    <g id="Group_5" data-name="Group 5" transform="translate(1278.725 332.089)">
      <path id="Path_22" data-name="Path 22" d="M1484.907,519.915a4.454,4.454,0,0,1-4.284-4.284,4.272,4.272,0,0,1,1.3-3.137,4.1,4.1,0,0,1,2.983-1.3,4.438,4.438,0,0,1,4.436,4.437,4.1,4.1,0,0,1-1.3,2.982A4.272,4.272,0,0,1,1484.907,519.915Z" transform="translate(-1422.475 -495.303)" fill="#7dc855"/>
      <path id="Path_23" data-name="Path 23" d="M1388.778,492.2l-1.947-5.611c-.929,4.8-1.95,11.246-3.092,16-.738,3.376-4.042,3.471-4.755.166l-3.567-24.37-4.564,17.308c-.285,1.142-.784,2.71-2.164,2.687-1.07-.023-1.64-.713-2.068-1.854l-2.782-8.416-1.688,4.707a2.37,2.37,0,0,1-2.52,1.759c-6.705,0-13.432.071-20.138.071a1.612,1.612,0,0,1-1.593-1.617h0a1.591,1.591,0,0,1,1.593-1.592c6.657,0,13.336-.024,19.994-.024l2.639-6.966c.832-1.665,2.592-1.379,3.305.191l2.924,7.94,4.564-17.617c.952-3.685,4.161-3.757,5.018.142l3.59,24.442,3-16.595c.547-3.02,3.209-3.448,4.161-.429l2.757,8.2h9.724v3.163h-10.414a1.855,1.855,0,0,1-1.974-1.689Z" transform="translate(-1337.901 -472.189)" fill="#7dc855" fill-rule="evenodd"/>
    </g>
    <path id="Path_24" data-name="Path 24" d="M1488.172,249.659a33.863,33.863,0,0,0-36.344,4.247A102.333,102.333,0,0,1,1465,262.674a45.592,45.592,0,0,1,9.352,9.767c1.313-9.327,6.688-16.654,13.971-22.71l-.147-.073ZM1507.1,277.9a34,34,0,0,0-8.86-20.738,23.818,23.818,0,0,0,.434,2.815,36.938,36.938,0,0,1,.8,12.309,22.333,22.333,0,0,1-3.853,9.907C1499.372,280.611,1503.277,279.256,1507.1,277.9Z" transform="translate(-126.687 -6.193)" fill="#fff" fill-rule="evenodd"/>
    <path id="Path_25" data-name="Path 25" d="M1462.029,235.765c-5.815,8.111-9.076,9.886-7.129,19.4,1.984,9.7,1.577,17.787-10.29,25.982a37.389,37.389,0,0,0,4.282-18.05c-1.749,7.722-6,16.285-9.731,20.175-7.771-24.534,7.2-34.459,22.868-47.509Zm-30.282,66.694c9.732-28.287,1.634-40.4-35.377-58.515l-12.97-6.654c20.685,19.365,8.23,23.329,17.521,48.021a33.281,33.281,0,0,0,20.445,20.174,35.739,35.739,0,0,1-18.725-23.224c-2.982-11.077-2.519-18.165-2.228-24.188a68.377,68.377,0,0,0,3.527,21.48c3.2,9.963,10.009,19.294,23.095,24.821.346-15.152-7.313-34.079-15.173-44.484,11.393,10.879,18.967,27.344,19.885,42.568Zm46.662-31.558c-15.936,7.265-39.855,10.162-42.358,30.547a39.255,39.255,0,0,1,14.693-12.761c-6.326,5.381-12.215,13.5-14.019,18.862,8.641-1.649,16.511-4.733,22.134-12.008C1467.293,284.631,1466.125,279.9,1478.409,270.9Z" transform="translate(-86.138 0)" fill="#7dc855" fill-rule="evenodd"/>
    <path id="Path_26" data-name="Path 26" d="M1482.794,329.21a41.505,41.505,0,0,1-44.393,31.47q-2.058-.2-4.046-.6a40.01,40.01,0,0,1-28.571-50.043c.443,9.185,1.157,17.114,6.483,26.208a38.985,38.985,0,0,0,70.527-7.035Z" transform="translate(-98.445 -44.012)" fill="#fff" fill-rule="evenodd"/>
    <g id="Group_6" data-name="Group 6" transform="translate(1384.021 336.703)">
      <path id="Path_27" data-name="Path 27" d="M1611.873,519.493a6.207,6.207,0,0,1-1.574,3.818,12.9,12.9,0,0,1-3.417,3,6.543,6.543,0,0,1-3.2,1.2,10.32,10.32,0,0,1-2.5-.334,22.14,22.14,0,0,1-2.445-.787q-1.206-.453-2.395-.9l.284-.67q1.105.218,2.3.443a11.785,11.785,0,0,0,2.169.227,8.821,8.821,0,0,0,4.471-1.373,12.835,12.835,0,0,0,3.6-3.173,5.887,5.887,0,0,0,1.491-3.46,5.972,5.972,0,0,0-.771-2.78,12.047,12.047,0,0,0-1.742-2.411l.954-2.63a9.419,9.419,0,0,1,2.027,2.546,6.958,6.958,0,0,1,.737,3.216Z" transform="translate(-1596.348 -499.01)" fill="#7dc855"/>
      <path id="Path_28" data-name="Path 28" d="M1642.787,504h-2.345a2.165,2.165,0,0,1-1.825-.921,5.876,5.876,0,0,1-.912-2.4,33.2,33.2,0,0,1-.479-3.919q-.1-1.893-.209-3.886a28.451,28.451,0,0,0-.285-3.022,6.823,6.823,0,0,0-.476-1.683,4.391,4.391,0,0,0-1.023-1.407l2.06-3.25a22.707,22.707,0,0,1,.921,4.808q.167,1.74.335,8.24a9.8,9.8,0,0,0,.871,3.817,1.287,1.287,0,0,0,1.021.7h2.345Z" transform="translate(-1619.391 -483.516)" fill="#7dc855"/>
      <path id="Path_29" data-name="Path 29" d="M1660.444,507.655H1650.9v-2.914h8.323a7.605,7.605,0,0,0-.469-3.014,9.035,9.035,0,0,0-1.574-2.077l1.306-2.731a9.494,9.494,0,0,1,1.507,2.379,14.214,14.214,0,0,1,.453,4.271Zm-3.937-15.04-1.272,2.429-2.713-1.407,1.239-2.428Zm3.853-1.507-1.307,2.412-2.713-1.441,1.257-2.394Z" transform="translate(-1628.673 -487.172)" fill="#7dc855"/>
      <path id="Path_30" data-name="Path 30" d="M1681,518.178h-9.547v-2.914h8.324a7.6,7.6,0,0,0-.469-3.015,9,9,0,0,0-1.575-2.076l1.307-2.73a9.516,9.516,0,0,1,1.508,2.378,14.271,14.271,0,0,1,.451,4.271Zm-3.936,4.857-1.272,2.428-2.713-1.407,1.239-2.428Zm3.852-1.509-1.306,2.413-2.714-1.441,1.256-2.395Z" transform="translate(-1640.851 -497.694)" fill="#7dc855"/>
      <path id="Path_31" data-name="Path 31" d="M1701.551,518.178h-9.545v-2.914h8.323a7.6,7.6,0,0,0-.469-3.015,9.017,9.017,0,0,0-1.575-2.076l1.306-2.73a9.5,9.5,0,0,1,1.509,2.378,14.255,14.255,0,0,1,.451,4.271Zm-1.709,4.069-1.306,2.428-2.713-1.406,1.239-2.446Z" transform="translate(-1653.033 -497.694)" fill="#7dc855"/>
      <path id="Path_32" data-name="Path 32" d="M1731.936,520.931h-1.29a5.179,5.179,0,0,1-1.842-.293,4.822,4.822,0,0,1-1.408-.83,4.979,4.979,0,0,1-1.373.822,7.3,7.3,0,0,1-2.345.3h-1.089a4.81,4.81,0,0,1-1.742-.335,9.411,9.411,0,0,1-1.406-.72,5.433,5.433,0,0,1-1.474.83,7.5,7.5,0,0,1-2.177.226h-3.232v-2.914h3.232a5.739,5.739,0,0,0,1.943-.234,1.5,1.5,0,0,0,.971-1.541,9.445,9.445,0,0,0-.05-.971,9.565,9.565,0,0,0-.185-1.088l.687-1q.469,1.541.77,2.244a5.843,5.843,0,0,0,1.172,1.842,2.543,2.543,0,0,0,1.843.754h1.121a3.518,3.518,0,0,0,1.859-.385,1.538,1.538,0,0,0,.67-1.39,7.167,7.167,0,0,0-.068-1q-.067-.486-.183-1.055l.7-1,.352,1.573a6.112,6.112,0,0,0,1.106,2.58,1.959,1.959,0,0,0,1.541.636.986.986,0,0,0,.728-.276.961.961,0,0,0,.276-.712,3.625,3.625,0,0,0-.686-1.977c-.079-.111-.352-.474-.822-1.088l1.09-1.826a7.964,7.964,0,0,1,.938,1.793,10.122,10.122,0,0,1,.369,3.031Z" transform="translate(-1665.212 -500.447)" fill="#7dc855"/>
    </g>
  </g>
</svg>
